<svg id="Layer_1" enable-background="new 0 0 511 511" height="512" viewBox="0 0 511 511" width="512" xmlns="http://www.w3.org/2000/svg"><g><g><path d="m502.093 318.621c.236-.91.463-1.826.688-2.743-.222.917-.455 1.83-.688 2.743z" fill="#bfe5fe"/><path d="m255 .5c-98.131 0-158.574 55.347-158.741 55.441-3.787 17.481-10.374 42.85-10.374 61.465 0 140.833 118.763 254.972 259.596 254.972 60.017 0 115.159-27.944 158.719-62.639.178-1.087 5.8-23.477 5.8-54.239 0-140.833-114.167-255-255-255z" fill="#add841"/><path d="m345.459 365.179c-140.833 0-255-114.167-255-255 0-18.615 2.013-36.757 5.8-54.239-.006.005-.011.01-.017.014-58.645 46.721-96.242 118.738-96.242 199.546 0 34.502 6.852 67.404 19.27 97.419l73.526 99.352c44.079 36.377 100.59 58.229 162.204 58.229 61.486 0 117.882-21.765 161.913-58.009l73.8-99.613c5.838-14.118 10.383-28.806 13.487-43.139-43.56 34.695-98.725 55.44-158.741 55.44z" fill="#8ecb51"/></g><g><g><path d="m242.79 136.503-.193-62.997c-.036-11.746 4.511-22.796 12.805-31.115 8.293-8.319 19.329-12.9 31.075-12.9h224.523v25h-224.523c-5.054 0-9.803 1.971-13.371 5.55-3.567 3.579-5.524 8.333-5.509 13.388l.193 62.996z" fill="#3342ae"/></g><g><g><path d="m242.79 136.503-.193-62.997c-.036-11.746 4.511-22.796 12.805-31.115 8.293-8.319 19.329-12.9 31.075-12.9h224.523v25h-224.523c-5.054 0-9.803 1.971-13.371 5.55-3.567 3.579-5.524 8.333-5.509 13.388l.193 62.996z" fill="#3342ae"/></g></g><g><g><path d="m242.73 117.012.06 19.491 25-.077-.06-19.414z" fill="#1a396b"/></g></g><g><path d="m282.826 169.5h-56.034c-4.226 0-7.652-3.426-7.652-7.652v-25.108c0-4.226 3.426-7.652 7.652-7.652h56.034c4.226 0 7.652 3.426 7.652 7.652v25.108c.001 4.225-3.425 7.652-7.652 7.652z" fill="#3342ae"/></g><g><path d="m248.485 129.087h-21.693c-4.226 0-7.652 3.426-7.652 7.652v25.108c0 4.226 3.426 7.652 7.652 7.652h21.693z" fill="#1a396b"/></g><path d="m456.746 212.871c-8.198-33.798-38.459-57.597-73.237-57.597h-131.838v195.452h68.066l97.175 101.762c32.121-26.441 57.657-60.589 73.794-99.614z" fill="#ffd508"/><path d="m255.29 155.275h-128.799c-34.778 0-65.039 23.799-73.237 57.597l-33.969 140.04c16.268 39.322 42.082 73.686 74.562 100.205l102.073-102.39h59.37z" fill="#fba72d"/><g><path d="m179.587 249.917h-10.388c-5.726 0-10.368-4.642-10.368-10.368v-10.389c0-5.726-4.642-10.368-10.368-10.368h-23.733c-5.726 0-10.368 4.642-10.368 10.368v10.388c0 5.726-4.642 10.368-10.368 10.368h-10.389c-5.726 0-10.368 4.642-10.368 10.368v23.732c0 5.726 4.642 10.368 10.368 10.368h10.388c5.726 0 10.368 4.642 10.368 10.368v10.388c0 5.726 4.642 10.368 10.368 10.368h23.732c5.726 0 10.368-4.642 10.368-10.368v-10.388c0-5.726 4.642-10.368 10.368-10.368h10.388c5.726 0 10.368-4.642 10.368-10.368v-23.732c.002-5.725-4.64-10.367-10.366-10.367z" fill="#fba72d"/></g><g><g><g><path d="m190.696 282.783h-85.939c-5.738 0-10.389-4.651-10.389-10.389v-23.69c0-5.738 4.651-10.389 10.389-10.389h85.939c5.738 0 10.389 4.651 10.389 10.389v23.69c.001 5.737-4.651 10.389-10.389 10.389z" fill="#fbf6df"/></g></g><g><path d="m104.757 238.314c-5.738 0-10.389 4.651-10.389 10.389v23.69c0 5.738 4.651 10.389 10.389 10.389h20.736v-44.468z" fill="#f4e095"/></g><g><g><path d="m160.013 313.908h-24.572c-5.494 0-9.948-4.454-9.948-9.948v-86.822c0-5.494 4.454-9.948 9.948-9.948h24.572c5.494 0 9.948 4.454 9.948 9.948v86.822c0 5.494-4.454 9.948-9.948 9.948z" fill="#fff"/></g></g></g><g><g><circle cx="357.02" cy="229.995" fill="#fba72d" r="22.805"/></g><g><circle cx="357.02" cy="308.801" fill="#fba72d" r="22.805"/></g><g><circle cx="396.423" cy="269.398" fill="#fba72d" r="22.805"/></g><g><circle cx="317.617" cy="269.398" fill="#fba72d" r="22.805"/></g></g><g><g><circle cx="363.587" cy="221.145" fill="#8ecb51" r="22.805"/></g><g><circle cx="363.587" cy="299.951" fill="#e5554e" r="22.805"/></g><g><circle cx="402.991" cy="260.548" fill="#ffe565" r="22.805"/></g><g><circle cx="324.184" cy="260.548" fill="#3342ae" r="22.805"/></g></g></g></g></svg>